<svg width="94" height="98" viewBox="0 0 94 98" fill="none" xmlns="http://www.w3.org/2000/svg">
<path d="M46.2831 97.1629C71.4053 97.1629 91.7709 75.585 91.7709 48.9674C91.7709 22.3497 71.4053 0.771774 46.2831 0.771774C21.1609 0.771774 0.79538 22.3497 0.79538 48.9674C0.79538 75.585 21.1609 97.1629 46.2831 97.1629Z" fill="#E42D2D"/>
<path d="M46.3109 0.771768C58.2218 0.824157 69.6382 5.82444 78.1073 14.6984C86.5764 23.5723 91.4225 35.6118 91.6045 48.2304C91.7865 60.849 87.2899 73.0398 79.0807 82.1838C70.8715 91.3278 59.6047 96.6954 47.7009 97.1335C47.2144 97.1335 46.721 97.1335 46.2345 97.1335C34.3236 97.0811 22.9072 92.0808 14.4381 83.2069C5.96902 74.3329 1.12289 62.2934 0.940871 49.6748C0.758851 37.0562 5.25546 24.8654 13.4647 15.7214C21.6738 6.5774 32.9406 1.2098 44.8445 0.771768C45.331 0.771768 45.8244 0.771768 46.3109 0.771768ZM46.3109 0.0353952C45.8175 0.0353952 45.3101 0.0353952 44.8167 0.0353952C32.6838 0.421451 21.1817 5.85074 12.7965 15.1497C4.41129 24.4486 -0.183388 36.8703 0.0056079 49.7296C0.194604 62.5889 5.1521 74.853 13.8065 83.8708C22.4609 92.8886 34.117 97.9358 46.2553 97.9214C46.7488 97.9214 47.2561 97.9214 47.7496 97.9214C60.0044 97.7193 71.6816 92.3674 80.2122 83.0431C88.7428 73.7188 93.4281 61.1859 93.2373 48.2015C93.0465 35.2171 87.9953 22.8448 79.1949 13.8064C70.3945 4.76798 58.5658 -0.196194 46.3109 0.0059396V0.0353952Z" fill="#231F20"/>
<path d="M31.5996 46.2326C33.5945 46.1655 35.0898 42.0447 34.9394 37.0287C34.789 32.0128 33.0498 28.0009 31.0548 28.0681C29.0599 28.1353 27.5646 32.256 27.715 37.272C27.8655 42.288 29.6046 46.2998 31.5996 46.2326Z" fill="#231F20"/>
<path d="M61.4667 45.5626C63.4627 45.4991 64.9655 41.3794 64.8234 36.3609C64.6813 31.3423 62.9481 27.3255 60.9521 27.3889C58.9562 27.4523 57.4533 31.5721 57.5954 36.5906C57.7375 41.6091 59.4707 45.626 61.4667 45.5626Z" fill="#231F20"/>
<path d="M14.852 51.3536C17.9058 51.2507 20.3314 49.5 20.2697 47.4432C20.208 45.3865 17.6824 43.8024 14.6286 43.9052C11.5748 44.0081 9.14923 45.7588 9.21092 47.8156C9.2726 49.8724 11.7982 51.4564 14.852 51.3536Z" fill="white"/>
<path d="M77.947 51.3439C81.0008 51.2411 83.4264 49.4904 83.3647 47.4336C83.303 45.3768 80.7774 43.7927 77.7236 43.8955C74.6698 43.9984 72.2443 45.7491 72.3059 47.8059C72.3676 49.8627 74.8932 51.4467 77.947 51.3439Z" fill="white"/>
<path d="M80.6531 74.7067C80.1992 75.0904 79.5321 74.8448 79.0089 74.563C53.0766 60.5979 39.0749 61.3447 15.9783 74.5436C15.4631 74.838 14.8 75.0897 14.347 74.7067V74.7067C14.1248 74.5188 14 74.2641 14 73.9985C14 73.7329 14.1248 73.4781 14.347 73.2903V73.2903C14.7944 72.912 15.4428 72.7862 15.8998 72.4195C40.4624 52.7065 54.6181 53.6811 79.0882 72.4367C79.5542 72.7939 80.2047 72.9112 80.6531 73.2903V73.2903C80.8752 73.4781 81 73.7329 81 73.9985C81 74.2641 80.8752 74.5188 80.6531 74.7067V74.7067Z" fill="#231F20"/>
<path d="M73.0049 21.9725L50.4088 34.9252C50.2989 34.9881 50.1412 34.9571 49.9703 34.8389C49.7993 34.7208 49.6292 34.5251 49.4973 34.295C49.3654 34.0649 49.2826 33.8192 49.267 33.612C49.2514 33.4048 49.3043 33.253 49.4142 33.19L72.0103 20.2374C72.1201 20.1744 72.2779 20.2055 72.4488 20.3236C72.6197 20.4418 72.7898 20.6375 72.9217 20.8676C73.0536 21.0977 73.1365 21.3434 73.1521 21.5506C73.1677 21.7578 73.1147 21.9096 73.0049 21.9725Z" fill="#231F20"/>
<path d="M43.4361 35.185L20.4218 22.9908C20.3099 22.9315 20.252 22.7815 20.2607 22.5739C20.2694 22.3663 20.344 22.118 20.4682 21.8836C20.5924 21.6493 20.7559 21.4481 20.9228 21.3243C21.0897 21.2005 21.2463 21.1642 21.3582 21.2235L44.3725 33.4178C44.4843 33.477 44.5423 33.627 44.5336 33.8346C44.5249 34.0423 44.4502 34.2905 44.3261 34.5249C44.2019 34.7593 44.0384 34.9605 43.8715 35.0843C43.7045 35.2081 43.5479 35.2443 43.4361 35.185Z" fill="#231F20"/>
</svg>
