<svg width="81" height="76" viewBox="0 0 81 76" fill="none" xmlns="http://www.w3.org/2000/svg">
<path d="M79.5 38C79.5 58.0698 62.1306 74.5 40.5 74.5C18.8694 74.5 1.5 58.0698 1.5 38C1.5 17.9302 18.8694 1.5 40.5 1.5C62.1306 1.5 79.5 17.9302 79.5 38Z" fill="white" stroke="black" stroke-width="3"/>
<path d="M17 25.875L41 8.08334L65 25.875V53.8333C65 55.1815 64.4381 56.4745 63.4379 57.4278C62.4377 58.3811 61.0812 58.9167 59.6667 58.9167H22.3333C20.9188 58.9167 19.5623 58.3811 18.5621 57.4278C17.5619 56.4745 17 55.1815 17 53.8333V25.875Z" stroke="#05059C" stroke-width="3" stroke-linecap="round" stroke-linejoin="round"/>
<path d="M33 58.9167V33.5H49V58.9167" stroke="#05059C" stroke-width="3" stroke-linecap="round" stroke-linejoin="round"/>
</svg>
